PathFileType	4	(X/Y/Z)	Patient4_TMGait_0pt4_02_left_21.trc.trc
DataRate	CameraRate	NumFrames	NumMarkers	Units	OrigDataRate	OrigDataStartFrame	OrigNumFrames
77.777777777778	77.777777777778	6	33	mm	77.777777777778	71	       141
Frame#	Time	Sacral			L.Shoulder			Chest			R.Shoulder			Neck			R.ASIS			L.ASIS			R.Thigh.Superior			R.Thigh.Lateral			R.Thigh.Inferior			R.Patella			L.Thigh.Superior			L.Thigh.Lateral			L.Thigh.Inferior			L.Patella			L.Shank.Superior			L.Shank.Lateral			L.Shank.Inferior			R.Shank.Superior			R.Shank.Lateral			R.Shank.Inferior			R.Heel			R.Midfoot.Superior			R.Midfoot.Lateral			R.Toe			L.Heel			L.Midfoot.Lateral			L.Midfoot.Superior			L.Toe			L.Elbow			L.Wrist			R.Elbow			R.Wrist			
		X1	Y1	Z1	X2	Y2	Z2	X3	Y3	Z3	X4	Y4	Z4	X5	Y5	Z5	X6	Y6	Z6	X7	Y7	Z7	X8	Y8	Z8	X9	Y9	Z9	X10	Y10	Z10	X11	Y11	Z11	X12	Y12	Z12	X13	Y13	Z13	X14	Y14	Z14	X15	Y15	Z15	X16	Y16	Z16	X17	Y17	Z17	X18	Y18	Z18	X19	Y19	Z19	X20	Y20	Z20	X21	Y21	Z21	X22	Y22	Z22	X23	Y23	Z23	X24	Y24	Z24	X25	Y25	Z25	X26	Y26	Z26	X27	Y27	Z27	X28	Y28	Z28	X29	Y29	Z29	X30	Y30	Z30	X31	Y31	Z31	X32	Y32	Z32	X33	Y33	Z33	

71	29.100000000000	890.999369537784	1007.250190924379	438.647222943059	1099.740940831878	1435.344042526283	277.942274140530	1178.839854674945	1364.567574099084	450.537981477016	1074.846322972848	1438.805069934241	612.569853947997	1062.432063847872	1496.887824459541	432.373943111938	1105.645150200200	946.039134895126	583.579479553220	1122.337206600691	963.258062823470	307.694488651038	1174.909793278246	761.988806048110	560.946017397442	1117.328983893092	644.574749341635	628.862296640251	1205.700687534569	603.327374903302	551.697606437013	1232.899459031517	523.875819564743	566.518265913031	1141.929611258664	739.425576984512	341.898787828450	1045.581253174108	636.011322094733	265.385546753357	1107.135753298754	548.344105576292	337.232940824612	1096.220771918607	480.731239227613	345.162742324961	1067.104381385664	411.005402450873	332.747986808783	973.716974487181	304.113726468647	273.859133812445	1007.734332222728	189.171959007002	347.885459680593	1218.769181240756	434.203830375698	578.382674988438	1165.914389722204	321.054030915259	643.608510004426	1234.436575327292	234.178486224425	592.052222006975	1141.851902450429	45.481462372147	567.247947763799	1305.093606584520	121.577791595137	605.552885933049	1226.727099889225	45.686883303895	640.393191371013	1429.824137982943	85.001123708005	630.502920732932	870.048458905060	38.872788771040	382.438958322112	943.656983497689	35.399642587235	301.728933078324	1026.822433884536	96.206478953561	331.160663046018	1155.208162442350	45.142787008242	300.817059687997	1144.637728429046	1095.925566429660	141.371164038279	1385.568043733816	1004.801842495781	177.577899683177	950.385401156010	1115.982363439495	725.543899971481	948.866811871313	854.731145570339	734.696123499243	
72	29.112857142857	893.078872482352	1006.247341652952	441.034431600825	1100.593485524005	1434.590852132306	280.193820139712	1179.826131030538	1364.092826475756	452.823389571435	1075.622930607967	1438.153795106714	614.794304109456	1063.100493569167	1496.146002301037	434.550151452161	1107.706483021667	945.215029023045	586.046639199333	1124.264030924919	962.465528261725	310.142034539929	1175.131404647035	759.367442301021	563.979829285670	1115.609248390666	642.299725374829	630.508802878300	1203.738281449915	600.757301870328	553.342183390309	1229.091165945851	521.823661309723	567.100672524666	1142.615704619593	738.093934959807	343.857217285043	1045.397188405935	635.381367346293	267.120965777343	1106.450950136363	547.121190122758	338.654811430462	1095.125511702616	479.251854954873	346.284324105591	1065.150978968485	409.861849374671	333.806587667714	970.534390118703	304.069744434559	274.714256665505	1003.492665663651	188.511066927068	348.202435624841	1216.369428454157	432.137427914472	579.233139850188	1164.367436270535	318.393152987576	643.884138660146	1233.749531340417	232.300186199412	592.196292454076	1142.532056277038	44.271033949757	566.593984001597	1305.814219214658	119.105277690953	604.977570539869	1227.125082231263	44.077852345882	639.862644240597	1430.252362333155	81.895320745169	630.012175210571	864.828823495992	38.645693393409	382.429783890555	938.442338165348	35.251609992298	301.751091498562	1021.668025347866	96.097784667522	331.206333996054	1150.066717700705	44.844155006964	300.787287303932	1146.126630205256	1095.093241973408	144.178932718884	1386.351170855960	1002.318023608544	181.179684349965	951.597341545353	1115.081839306761	727.255297791119	951.739411554636	853.724125493777	735.999066657063	
73	29.125714285714	895.307932338677	1005.033850944749	443.764665375893	1101.114827523009	1433.766535071685	282.600213571879	1180.693005450406	1363.647883171614	455.209073606020	1076.322933309322	1437.404075964685	617.211377473815	1063.546678452681	1495.306905428061	436.912973831387	1110.087094469610	944.317703914374	588.628678341038	1126.262320458651	961.591882836413	312.763559366344	1176.203363102236	757.038786405442	566.913117466221	1114.793953715418	640.111353978982	631.964317194521	1202.825280985887	598.438813106418	554.914559726934	1226.095552113521	519.519838466178	567.606965931564	1143.645590744491	736.674666910430	345.900296316548	1045.546165516904	634.594471478746	269.078005925145	1106.256759460379	545.765919134467	340.232662540310	1094.611889796655	477.532236267234	347.525526451999	1063.579761596927	408.524746061618	335.005650153102	967.556204066193	303.995046354506	275.703546372704	999.331538188178	187.745495984038	348.561162128384	1214.126422319500	429.748670856849	579.881475519528	1162.060556790419	315.873405007576	643.902608171859	1231.487033353604	230.058130977521	592.029096364892	1140.017690282262	43.685560908757	565.604286510656	1303.827088409499	115.959982758214	604.005442834125	1224.270825210177	42.593034241955	639.090295107112	1427.721323169932	77.266610182202	629.326311906249	859.573955816549	38.348145387808	382.407980763502	933.218689375330	35.045345753185	301.778881770971	1016.504787961705	95.967377261409	331.249362402988	1144.945620696979	44.544078307557	300.742406109821	1147.272248373531	1094.158592935067	147.128542088880	1386.571586114487	998.971828222793	184.743165893432	953.458235522697	1113.760508232788	729.195781605058	955.957964376407	852.310244566166	737.508715037005	
74	29.138571428571	897.638136033848	1003.647221056746	446.801646601099	1101.340098318246	1432.890881522670	285.162046231233	1181.459942363387	1363.234523916215	457.696556333791	1076.970360650001	1436.565346501820	619.824371089273	1063.803603633420	1494.392690852647	439.466451921615	1112.741170494362	943.383579856853	591.306390506090	1128.290125343920	960.643213314196	315.540400821522	1178.058325954483	754.994677806416	569.704102239141	1114.809697364821	638.062197366614	633.264614627028	1202.857782270197	596.369963856671	556.419586394137	1223.915865434320	517.049227412962	568.054775543414	1145.035203608814	735.196584626323	348.017643652611	1046.078489731003	633.635537506275	271.269208060230	1106.650278771512	544.282530873824	341.977881176820	1094.801845526198	475.562735220095	348.889411650943	1062.480570065533	406.991318944651	336.357953476669	964.860067238524	303.919521404351	276.837180336733	995.299672996411	186.899771760321	348.960392856654	1212.141291523315	427.135975806919	580.360849729906	1159.313408297739	313.488751106397	643.794011069740	1228.080871584842	227.517786709253	591.632855763574	1135.021475902368	43.459065620380	564.483045910330	1299.707861220018	112.418266705048	602.779027545684	1218.944390901870	41.220592159926	638.237920053467	1422.949091234023	71.723017870248	628.502974805909	854.294602818555	38.052076497899	382.361896116060	927.999958546565	34.816343382953	301.806596412685	1011.369439840617	95.820002256847	331.281498509319	1139.863168109043	44.220324618492	300.676366194682	1148.019005877710	1093.112845678285	150.227899843199	1386.167763187528	994.794654926590	188.204066805353	955.962876227838	1112.049162404681	731.385575039621	961.476442858787	850.536104246629	739.242288324812	
75	29.151428571429	900.010900768325	1002.143649015908	450.099198296786	1101.312040046071	1431.997885647062	287.875758725628	1182.148485706803	1362.861580859509	460.282565080635	1077.596824470458	1435.660869277946	622.630811516200	1063.913710805350	1493.440626568334	442.210614341037	1115.605460204833	942.463337365638	594.057119625470	1130.299583652357	959.641473909659	318.444955559985	1180.561471351770	753.221334976966	572.318850542067	1115.565353026636	636.222117957321	634.474939615516	1203.677100266080	594.557615563584	557.856171907909	1222.524635402662	514.530633307492	568.480985056390	1146.796762147509	733.710271972415	350.205078889398	1047.055818512356	632.503869807452	273.704248893224	1107.740756648509	542.695461304048	343.903451773631	1095.824521951060	473.356755647011	350.379059854951	1061.958991653955	405.279042699498	337.871889194238	962.544574111844	303.897450424762	278.121799829918	991.466898272849	186.025661418195	349.395889600475	1210.501837777873	424.439307894892	580.728129037868	1156.457472968490	311.272879202144	643.693590087415	1224.001643604404	224.814452244711	591.104636070467	1128.353294546308	43.397155202779	563.407147566175	1294.104895855594	108.811900434065	601.449605190192	1212.003248223519	39.991203540364	637.442726157106	1416.701663768572	65.922765163450	627.612356517486	849.014178782971	37.880756988756	382.279780983465	922.808046057595	34.632116551466	301.827250591957	1006.316052517453	95.671713823358	331.291867175292	1134.836964001197	43.849275590348	300.583772103964	1148.316550651224	1091.958087342047	153.491905751198	1385.066936212203	989.814570301173	191.496400711632	959.112341724369	1109.996057141465	733.832448122866	968.244056371872	848.469474111209	741.209749425602	
76	29.164285714286	902.361925187043	1000.596247087156	453.603930092934	1101.078047921979	1431.135304015865	290.732695657670	1182.779278726772	1362.545204498273	462.958269829388	1078.237093466007	1434.727985805678	625.620189049723	1063.924105623390	1492.501021496233	445.139618632595	1118.601291609517	941.617317418039	596.857695986296	1132.241825872482	958.625990860370	321.441990866281	1183.527373872640	751.713231583123	574.734397294278	1116.962108701237	634.669242318091	635.678492668791	1205.095924883476	593.022630964217	559.222845798965	1221.870604250037	512.102506405270	568.941484632717	1148.937756803723	732.287463396045	352.466403248388	1048.551677663053	631.217352631272	276.385836966662	1109.646524880470	541.052884508984	346.020653778758	1097.810324213934	470.955445973729	351.994607319759	1062.135409776081	403.428903016256	339.546272451881	960.728233182868	304.008624325507	279.557103275145	987.925354043049	185.205185763336	349.859403472163	1209.272166937282	421.817381414590	581.057166585004	1153.788039476908	309.286345157645	643.725764191420	1219.691878913193	222.120496572492	590.546676140605	1120.802228986056	43.379384296658	562.505098665923	1287.652671179650	105.457639867702	600.158247844096	1204.261488248057	38.949289155595	636.803333510030	1409.695156303385	60.457271357704	626.734966041038	843.772338554616	38.013481249484	382.152002668955	917.673728644393	34.597305582339	301.833590518056	1001.416450196784	95.552760555185	331.267630715365	1129.880665932984	43.408666190481	300.461250303817	1148.122848664539	1090.711463093232	156.940305290762	1383.186729901969	984.059107841625	194.557723254670	962.912463629107	1107.666130333101	736.531195096381	976.209815122645	846.199172075748	743.414355968072	
